<mxfile host="app.diagrams.net" modified="2021-04-29T05:07:10.296Z" agent="5.0 (Windows NT 10.0; Win64; x64) AppleWebKit/537.36 (KHTML, like Gecko) Chrome/90.0.4430.85 Safari/537.36" etag="HTlEEVTiago1QPQ-Snlh" version="14.5.10" type="github">
  <diagram id="-TnqgRemt8iON_DSXshh" name="第 1 页">
    <mxGraphModel dx="2092" dy="1896" grid="0" gridSize="10" guides="0" tooltips="1" connect="1" arrows="0" fold="1" page="0" pageScale="1" pageWidth="827" pageHeight="1169" math="0" shadow="0">
      <root>
        <mxCell id="0" />
        <mxCell id="1" parent="0" />
        <mxCell id="FTzmyQGYdH0gRvFszx5Y-140" value="" style="rounded=1;whiteSpace=wrap;html=1;fillColor=#ffe6cc;strokeColor=#d79b00;" vertex="1" parent="1">
          <mxGeometry x="586" y="209" width="268" height="349" as="geometry" />
        </mxCell>
        <mxCell id="FTzmyQGYdH0gRvFszx5Y-139" value="" style="rounded=1;whiteSpace=wrap;html=1;fillColor=#d5e8d4;strokeColor=#82b366;" vertex="1" parent="1">
          <mxGeometry x="252" y="208" width="334" height="351" as="geometry" />
        </mxCell>
        <mxCell id="FTzmyQGYdH0gRvFszx5Y-138" value="" style="rounded=1;whiteSpace=wrap;html=1;fillColor=#dae8fc;strokeColor=#6c8ebf;" vertex="1" parent="1">
          <mxGeometry x="-32" y="212" width="284" height="345" as="geometry" />
        </mxCell>
        <mxCell id="5hHE_V22IZPiuGBWdB13-1" value="subdomain框架" style="rounded=0;whiteSpace=wrap;html=1;" parent="1" vertex="1">
          <mxGeometry x="54" y="252" width="120" height="60" as="geometry" />
        </mxCell>
        <mxCell id="5hHE_V22IZPiuGBWdB13-2" value="&lt;b&gt;&lt;font style=&quot;font-size: 18px&quot;&gt;subdomainscan&lt;/font&gt;&lt;/b&gt;" style="rounded=0;whiteSpace=wrap;html=1;" parent="1" vertex="1">
          <mxGeometry x="325" y="114" width="191" height="51" as="geometry" />
        </mxCell>
        <mxCell id="5hHE_V22IZPiuGBWdB13-3" value="web网站框架：tornado" style="rounded=0;whiteSpace=wrap;html=1;" parent="1" vertex="1">
          <mxGeometry x="-523" y="212" width="120" height="60" as="geometry" />
        </mxCell>
        <mxCell id="5hHE_V22IZPiuGBWdB13-4" value="插件化扫描" style="rounded=0;whiteSpace=wrap;html=1;" parent="1" vertex="1">
          <mxGeometry x="-523" y="342" width="120" height="60" as="geometry" />
        </mxCell>
        <mxCell id="5hHE_V22IZPiuGBWdB13-5" value="指定格式的插件" style="rounded=0;whiteSpace=wrap;html=1;" parent="1" vertex="1">
          <mxGeometry x="-523" y="472" width="120" height="60" as="geometry" />
        </mxCell>
        <mxCell id="5hHE_V22IZPiuGBWdB13-6" value="async_scanner" style="rounded=0;whiteSpace=wrap;html=1;" parent="1" vertex="1">
          <mxGeometry x="-623" y="592" width="120" height="60" as="geometry" />
        </mxCell>
        <mxCell id="5hHE_V22IZPiuGBWdB13-7" value="&lt;span&gt;sync_scanner&lt;/span&gt;" style="rounded=0;whiteSpace=wrap;html=1;" parent="1" vertex="1">
          <mxGeometry x="-413" y="592" width="120" height="60" as="geometry" />
        </mxCell>
        <mxCell id="2zgNddeZh391g8JpcmfO-1" value="web框架" style="rounded=0;whiteSpace=wrap;html=1;" parent="1" vertex="1">
          <mxGeometry x="359" y="252" width="120" height="60" as="geometry" />
        </mxCell>
        <mxCell id="2zgNddeZh391g8JpcmfO-2" value="插件框架" style="rounded=0;whiteSpace=wrap;html=1;" parent="1" vertex="1">
          <mxGeometry x="659.5" y="252" width="120" height="60" as="geometry" />
        </mxCell>
        <mxCell id="2zgNddeZh391g8JpcmfO-3" value="基础功能" style="rounded=0;whiteSpace=wrap;html=1;direction=south;" parent="1" vertex="1">
          <mxGeometry x="258" y="376" width="60" height="120" as="geometry" />
        </mxCell>
        <mxCell id="2zgNddeZh391g8JpcmfO-4" value="" style="shape=image;html=1;verticalAlign=top;verticalLabelPosition=bottom;labelBackgroundColor=#ffffff;imageAspect=0;aspect=fixed;image=https://cdn0.iconfinder.com/data/icons/cyber-security-solid-threat-protection/512/Hacker_anonymous-128.png" parent="1" vertex="1">
          <mxGeometry x="1586" y="799" width="80" height="80" as="geometry" />
        </mxCell>
        <mxCell id="2zgNddeZh391g8JpcmfO-5" value="" style="shape=image;html=1;verticalAlign=top;verticalLabelPosition=bottom;labelBackgroundColor=#ffffff;imageAspect=0;aspect=fixed;image=https://cdn0.iconfinder.com/data/icons/kameleon-free-pack/110/Hacker-128.png" parent="1" vertex="1">
          <mxGeometry x="1572" y="920" width="109" height="109" as="geometry" />
        </mxCell>
        <mxCell id="2zgNddeZh391g8JpcmfO-7" value="" style="aspect=fixed;pointerEvents=1;shadow=0;dashed=0;html=1;strokeColor=none;labelPosition=center;verticalLabelPosition=bottom;verticalAlign=top;align=center;fillColor=#00188D;shape=mxgraph.mscae.enterprise.domain_controller" parent="1" vertex="1">
          <mxGeometry x="1968" y="863" width="72" height="100" as="geometry" />
        </mxCell>
        <mxCell id="2zgNddeZh391g8JpcmfO-9" value="" style="pointerEvents=1;shadow=0;dashed=0;html=1;strokeColor=none;fillColor=#505050;labelPosition=center;verticalLabelPosition=bottom;verticalAlign=top;outlineConnect=0;align=center;shape=mxgraph.office.servers.domain_controller;" parent="1" vertex="1">
          <mxGeometry x="2118" y="740" width="45" height="55" as="geometry" />
        </mxCell>
        <mxCell id="2zgNddeZh391g8JpcmfO-10" value="" style="pointerEvents=1;shadow=0;dashed=0;html=1;strokeColor=none;fillColor=#505050;labelPosition=center;verticalLabelPosition=bottom;verticalAlign=top;outlineConnect=0;align=center;shape=mxgraph.office.servers.domain_controller;" parent="1" vertex="1">
          <mxGeometry x="2118" y="1040" width="45" height="55" as="geometry" />
        </mxCell>
        <mxCell id="2zgNddeZh391g8JpcmfO-11" value="" style="pointerEvents=1;shadow=0;dashed=0;html=1;strokeColor=none;fillColor=#505050;labelPosition=center;verticalLabelPosition=bottom;verticalAlign=top;outlineConnect=0;align=center;shape=mxgraph.office.servers.domain_controller;" parent="1" vertex="1">
          <mxGeometry x="2118" y="935" width="45" height="55" as="geometry" />
        </mxCell>
        <mxCell id="2zgNddeZh391g8JpcmfO-12" value="" style="pointerEvents=1;shadow=0;dashed=0;html=1;strokeColor=none;fillColor=#505050;labelPosition=center;verticalLabelPosition=bottom;verticalAlign=top;outlineConnect=0;align=center;shape=mxgraph.office.servers.domain_controller;" parent="1" vertex="1">
          <mxGeometry x="2118" y="835" width="45" height="55" as="geometry" />
        </mxCell>
        <mxCell id="2zgNddeZh391g8JpcmfO-14" value="" style="outlineConnect=0;dashed=0;verticalLabelPosition=bottom;verticalAlign=top;align=center;html=1;shape=mxgraph.aws3.android;fillColor=#5A69A4;gradientColor=none;" parent="1" vertex="1">
          <mxGeometry x="1788" y="871" width="73.5" height="84" as="geometry" />
        </mxCell>
        <mxCell id="2zgNddeZh391g8JpcmfO-15" value="" style="endArrow=classic;html=1;entryX=0;entryY=0.5;entryDx=0;entryDy=0;entryPerimeter=0;" parent="1" target="2zgNddeZh391g8JpcmfO-14" edge="1">
          <mxGeometry width="50" height="50" relative="1" as="geometry">
            <mxPoint x="1713" y="913" as="sourcePoint" />
            <mxPoint x="1906" y="1030" as="targetPoint" />
          </mxGeometry>
        </mxCell>
        <mxCell id="2zgNddeZh391g8JpcmfO-16" value="" style="endArrow=classic;html=1;exitX=1;exitY=1;exitDx=0;exitDy=0;" parent="1" edge="1">
          <mxGeometry width="50" height="50" relative="1" as="geometry">
            <mxPoint x="1665" y="878" as="sourcePoint" />
            <mxPoint x="1715" y="914" as="targetPoint" />
          </mxGeometry>
        </mxCell>
        <mxCell id="2zgNddeZh391g8JpcmfO-17" value="" style="endArrow=classic;html=1;" parent="1" edge="1">
          <mxGeometry width="50" height="50" relative="1" as="geometry">
            <mxPoint x="1670" y="955" as="sourcePoint" />
            <mxPoint x="1715" y="913" as="targetPoint" />
          </mxGeometry>
        </mxCell>
        <mxCell id="2zgNddeZh391g8JpcmfO-18" value="&lt;font style=&quot;font-size: 15px&quot;&gt;Red team&lt;/font&gt;" style="text;html=1;strokeColor=none;fillColor=none;align=center;verticalAlign=middle;whiteSpace=wrap;rounded=0;" parent="1" vertex="1">
          <mxGeometry x="1570" y="1009" width="103" height="40" as="geometry" />
        </mxCell>
        <mxCell id="2zgNddeZh391g8JpcmfO-19" value="&lt;font style=&quot;font-size: 15px&quot;&gt;Penetration testers&lt;/font&gt;" style="text;whiteSpace=wrap;html=1;" parent="1" vertex="1">
          <mxGeometry x="1557" y="886" width="166.94" height="36.59" as="geometry" />
        </mxCell>
        <mxCell id="2zgNddeZh391g8JpcmfO-22" value="&lt;font style=&quot;font-size: 15px&quot;&gt;子域名挖掘系统&lt;/font&gt;" style="text;html=1;strokeColor=none;fillColor=none;align=center;verticalAlign=middle;whiteSpace=wrap;rounded=0;" parent="1" vertex="1">
          <mxGeometry x="1760" y="970" width="137.25" height="20" as="geometry" />
        </mxCell>
        <mxCell id="2zgNddeZh391g8JpcmfO-24" value="&lt;font style=&quot;font-size: 15px&quot;&gt;Domain&lt;/font&gt;" style="text;html=1;strokeColor=none;fillColor=none;align=center;verticalAlign=middle;whiteSpace=wrap;rounded=0;" parent="1" vertex="1">
          <mxGeometry x="1927" y="981" width="137.25" height="20" as="geometry" />
        </mxCell>
        <mxCell id="2zgNddeZh391g8JpcmfO-26" value="" style="endArrow=classic;html=1;exitX=1;exitY=0.5;exitDx=0;exitDy=0;exitPerimeter=0;entryX=0;entryY=0.5;entryDx=0;entryDy=0;entryPerimeter=0;" parent="1" source="2zgNddeZh391g8JpcmfO-14" target="2zgNddeZh391g8JpcmfO-7" edge="1">
          <mxGeometry width="50" height="50" relative="1" as="geometry">
            <mxPoint x="1945" y="1015" as="sourcePoint" />
            <mxPoint x="1995" y="965" as="targetPoint" />
          </mxGeometry>
        </mxCell>
        <mxCell id="2zgNddeZh391g8JpcmfO-27" value="&lt;font style=&quot;font-size: 15px&quot;&gt;Subdomain&lt;/font&gt;" style="text;html=1;strokeColor=none;fillColor=none;align=center;verticalAlign=middle;whiteSpace=wrap;rounded=0;" parent="1" vertex="1">
          <mxGeometry x="2081" y="807" width="137.25" height="20" as="geometry" />
        </mxCell>
        <mxCell id="2zgNddeZh391g8JpcmfO-29" value="&lt;font style=&quot;font-size: 15px&quot;&gt;Subdomain&lt;/font&gt;" style="text;html=1;strokeColor=none;fillColor=none;align=center;verticalAlign=middle;whiteSpace=wrap;rounded=0;" parent="1" vertex="1">
          <mxGeometry x="2081" y="1005" width="137.25" height="20" as="geometry" />
        </mxCell>
        <mxCell id="2zgNddeZh391g8JpcmfO-30" value="&lt;font style=&quot;font-size: 15px&quot;&gt;Subdomain&lt;/font&gt;" style="text;html=1;strokeColor=none;fillColor=none;align=center;verticalAlign=middle;whiteSpace=wrap;rounded=0;" parent="1" vertex="1">
          <mxGeometry x="2081" y="902.59" width="137.25" height="20" as="geometry" />
        </mxCell>
        <mxCell id="2zgNddeZh391g8JpcmfO-31" value="&lt;font style=&quot;font-size: 15px&quot;&gt;Subdomain&lt;/font&gt;" style="text;html=1;strokeColor=none;fillColor=none;align=center;verticalAlign=middle;whiteSpace=wrap;rounded=0;" parent="1" vertex="1">
          <mxGeometry x="2081" y="1113" width="137.25" height="20" as="geometry" />
        </mxCell>
        <mxCell id="2zgNddeZh391g8JpcmfO-32" value="" style="endArrow=classic;html=1;exitX=0.665;exitY=0.5;exitDx=0;exitDy=0;exitPerimeter=0;" parent="1" source="2zgNddeZh391g8JpcmfO-7" target="2zgNddeZh391g8JpcmfO-9" edge="1">
          <mxGeometry width="50" height="50" relative="1" as="geometry">
            <mxPoint x="1748" y="1127" as="sourcePoint" />
            <mxPoint x="1798" y="1077" as="targetPoint" />
          </mxGeometry>
        </mxCell>
        <mxCell id="2zgNddeZh391g8JpcmfO-33" value="" style="endArrow=classic;html=1;exitX=0.665;exitY=0.5;exitDx=0;exitDy=0;exitPerimeter=0;" parent="1" source="2zgNddeZh391g8JpcmfO-7" target="2zgNddeZh391g8JpcmfO-12" edge="1">
          <mxGeometry width="50" height="50" relative="1" as="geometry">
            <mxPoint x="1849" y="1103" as="sourcePoint" />
            <mxPoint x="1899" y="1053" as="targetPoint" />
          </mxGeometry>
        </mxCell>
        <mxCell id="2zgNddeZh391g8JpcmfO-34" value="" style="endArrow=classic;html=1;exitX=0.665;exitY=0.5;exitDx=0;exitDy=0;exitPerimeter=0;" parent="1" source="2zgNddeZh391g8JpcmfO-7" target="2zgNddeZh391g8JpcmfO-11" edge="1">
          <mxGeometry width="50" height="50" relative="1" as="geometry">
            <mxPoint x="1846" y="1101" as="sourcePoint" />
            <mxPoint x="1896" y="1051" as="targetPoint" />
          </mxGeometry>
        </mxCell>
        <mxCell id="2zgNddeZh391g8JpcmfO-35" value="" style="endArrow=classic;html=1;" parent="1" target="2zgNddeZh391g8JpcmfO-10" edge="1">
          <mxGeometry width="50" height="50" relative="1" as="geometry">
            <mxPoint x="2017" y="913" as="sourcePoint" />
            <mxPoint x="1880" y="1033" as="targetPoint" />
          </mxGeometry>
        </mxCell>
        <mxCell id="FTzmyQGYdH0gRvFszx5Y-32" style="edgeStyle=orthogonalEdgeStyle;rounded=0;orthogonalLoop=1;jettySize=auto;html=1;exitX=0.5;exitY=1;exitDx=0;exitDy=0;" edge="1" parent="1" source="FTzmyQGYdH0gRvFszx5Y-19" target="FTzmyQGYdH0gRvFszx5Y-21">
          <mxGeometry relative="1" as="geometry" />
        </mxCell>
        <mxCell id="FTzmyQGYdH0gRvFszx5Y-33" style="edgeStyle=orthogonalEdgeStyle;rounded=0;orthogonalLoop=1;jettySize=auto;html=1;exitX=0.5;exitY=1;exitDx=0;exitDy=0;" edge="1" parent="1" source="FTzmyQGYdH0gRvFszx5Y-19" target="FTzmyQGYdH0gRvFszx5Y-20">
          <mxGeometry relative="1" as="geometry" />
        </mxCell>
        <mxCell id="FTzmyQGYdH0gRvFszx5Y-19" value="web界面" style="rounded=0;whiteSpace=wrap;html=1;" vertex="1" parent="1">
          <mxGeometry x="1816" y="-760" width="120" height="60" as="geometry" />
        </mxCell>
        <mxCell id="FTzmyQGYdH0gRvFszx5Y-42" style="edgeStyle=orthogonalEdgeStyle;rounded=0;orthogonalLoop=1;jettySize=auto;html=1;entryX=0.5;entryY=0;entryDx=0;entryDy=0;" edge="1" parent="1" source="FTzmyQGYdH0gRvFszx5Y-20" target="FTzmyQGYdH0gRvFszx5Y-41">
          <mxGeometry relative="1" as="geometry" />
        </mxCell>
        <mxCell id="FTzmyQGYdH0gRvFszx5Y-20" value="子域名挖掘" style="rounded=0;whiteSpace=wrap;html=1;" vertex="1" parent="1">
          <mxGeometry x="1681" y="-608" width="120" height="60" as="geometry" />
        </mxCell>
        <mxCell id="FTzmyQGYdH0gRvFszx5Y-38" style="edgeStyle=orthogonalEdgeStyle;rounded=0;orthogonalLoop=1;jettySize=auto;html=1;exitX=0.5;exitY=1;exitDx=0;exitDy=0;" edge="1" parent="1" source="FTzmyQGYdH0gRvFszx5Y-21" target="FTzmyQGYdH0gRvFszx5Y-35">
          <mxGeometry relative="1" as="geometry" />
        </mxCell>
        <mxCell id="FTzmyQGYdH0gRvFszx5Y-39" style="edgeStyle=orthogonalEdgeStyle;rounded=0;orthogonalLoop=1;jettySize=auto;html=1;entryX=0.5;entryY=0;entryDx=0;entryDy=0;" edge="1" parent="1" source="FTzmyQGYdH0gRvFszx5Y-21" target="FTzmyQGYdH0gRvFszx5Y-36">
          <mxGeometry relative="1" as="geometry" />
        </mxCell>
        <mxCell id="FTzmyQGYdH0gRvFszx5Y-40" style="edgeStyle=orthogonalEdgeStyle;rounded=0;orthogonalLoop=1;jettySize=auto;html=1;exitX=0.5;exitY=1;exitDx=0;exitDy=0;" edge="1" parent="1" source="FTzmyQGYdH0gRvFszx5Y-21" target="FTzmyQGYdH0gRvFszx5Y-37">
          <mxGeometry relative="1" as="geometry" />
        </mxCell>
        <mxCell id="FTzmyQGYdH0gRvFszx5Y-21" value="主域名信息搜集" style="rounded=0;whiteSpace=wrap;html=1;" vertex="1" parent="1">
          <mxGeometry x="1988" y="-608" width="120" height="60" as="geometry" />
        </mxCell>
        <mxCell id="FTzmyQGYdH0gRvFszx5Y-50" style="edgeStyle=orthogonalEdgeStyle;rounded=0;orthogonalLoop=1;jettySize=auto;html=1;entryX=0.5;entryY=0;entryDx=0;entryDy=0;" edge="1" parent="1" source="FTzmyQGYdH0gRvFszx5Y-23" target="FTzmyQGYdH0gRvFszx5Y-49">
          <mxGeometry relative="1" as="geometry" />
        </mxCell>
        <mxCell id="FTzmyQGYdH0gRvFszx5Y-23" value="结果导出" style="rounded=0;whiteSpace=wrap;html=1;" vertex="1" parent="1">
          <mxGeometry x="1924" y="-276" width="120" height="60" as="geometry" />
        </mxCell>
        <mxCell id="FTzmyQGYdH0gRvFszx5Y-24" value="界面展示" style="rounded=0;whiteSpace=wrap;html=1;" vertex="1" parent="1">
          <mxGeometry x="1741" y="-276" width="120" height="60" as="geometry" />
        </mxCell>
        <mxCell id="FTzmyQGYdH0gRvFszx5Y-31" style="edgeStyle=orthogonalEdgeStyle;rounded=0;orthogonalLoop=1;jettySize=auto;html=1;entryX=0.5;entryY=0;entryDx=0;entryDy=0;" edge="1" parent="1" source="FTzmyQGYdH0gRvFszx5Y-26" target="FTzmyQGYdH0gRvFszx5Y-19">
          <mxGeometry relative="1" as="geometry" />
        </mxCell>
        <mxCell id="FTzmyQGYdH0gRvFszx5Y-26" value="主域名" style="shape=parallelogram;html=1;strokeWidth=2;perimeter=parallelogramPerimeter;whiteSpace=wrap;rounded=1;arcSize=12;size=0.23;" vertex="1" parent="1">
          <mxGeometry x="1826" y="-879" width="100" height="60" as="geometry" />
        </mxCell>
        <mxCell id="FTzmyQGYdH0gRvFszx5Y-35" value="IP信息搜集模块" style="rounded=1;whiteSpace=wrap;html=1;" vertex="1" parent="1">
          <mxGeometry x="1875" y="-413" width="105" height="55" as="geometry" />
        </mxCell>
        <mxCell id="FTzmyQGYdH0gRvFszx5Y-36" value="DNS信息搜集模块" style="rounded=1;whiteSpace=wrap;html=1;" vertex="1" parent="1">
          <mxGeometry x="1993" y="-414" width="110" height="55" as="geometry" />
        </mxCell>
        <mxCell id="FTzmyQGYdH0gRvFszx5Y-37" value="WHOIS信息搜集模块" style="rounded=1;whiteSpace=wrap;html=1;" vertex="1" parent="1">
          <mxGeometry x="2113" y="-413" width="100" height="55" as="geometry" />
        </mxCell>
        <mxCell id="FTzmyQGYdH0gRvFszx5Y-43" style="edgeStyle=orthogonalEdgeStyle;rounded=0;orthogonalLoop=1;jettySize=auto;html=1;" edge="1" parent="1" source="FTzmyQGYdH0gRvFszx5Y-41">
          <mxGeometry relative="1" as="geometry">
            <mxPoint x="1741" y="-418" as="targetPoint" />
          </mxGeometry>
        </mxCell>
        <mxCell id="FTzmyQGYdH0gRvFszx5Y-41" value="六大查询模块" style="rounded=1;whiteSpace=wrap;html=1;" vertex="1" parent="1">
          <mxGeometry x="1681" y="-511" width="120" height="60" as="geometry" />
        </mxCell>
        <mxCell id="FTzmyQGYdH0gRvFszx5Y-49" value="数据表格" style="shape=parallelogram;html=1;strokeWidth=2;perimeter=parallelogramPerimeter;whiteSpace=wrap;rounded=1;arcSize=12;size=0.23;" vertex="1" parent="1">
          <mxGeometry x="1934" y="-182" width="100" height="60" as="geometry" />
        </mxCell>
        <mxCell id="FTzmyQGYdH0gRvFszx5Y-52" value="" style="endArrow=none;html=1;" edge="1" parent="1">
          <mxGeometry width="50" height="50" relative="1" as="geometry">
            <mxPoint x="1892" y="-252" as="sourcePoint" />
            <mxPoint x="1892" y="-320" as="targetPoint" />
          </mxGeometry>
        </mxCell>
        <mxCell id="FTzmyQGYdH0gRvFszx5Y-57" value="" style="endArrow=none;html=1;strokeColor=#000000;" edge="1" parent="1">
          <mxGeometry width="50" height="50" relative="1" as="geometry">
            <mxPoint x="1742" y="-321" as="sourcePoint" />
            <mxPoint x="2164" y="-321" as="targetPoint" />
          </mxGeometry>
        </mxCell>
        <mxCell id="FTzmyQGYdH0gRvFszx5Y-58" value="" style="endArrow=none;html=1;strokeColor=#000000;" edge="1" parent="1">
          <mxGeometry width="50" height="50" relative="1" as="geometry">
            <mxPoint x="1926" y="-322" as="sourcePoint" />
            <mxPoint x="1926" y="-358" as="targetPoint" />
          </mxGeometry>
        </mxCell>
        <mxCell id="FTzmyQGYdH0gRvFszx5Y-59" value="" style="endArrow=none;html=1;strokeColor=#000000;" edge="1" parent="1">
          <mxGeometry width="50" height="50" relative="1" as="geometry">
            <mxPoint x="2162.76" y="-322" as="sourcePoint" />
            <mxPoint x="2162.76" y="-358" as="targetPoint" />
          </mxGeometry>
        </mxCell>
        <mxCell id="FTzmyQGYdH0gRvFszx5Y-60" value="" style="endArrow=none;html=1;strokeColor=#000000;" edge="1" parent="1">
          <mxGeometry width="50" height="50" relative="1" as="geometry">
            <mxPoint x="2047.58" y="-322" as="sourcePoint" />
            <mxPoint x="2047.58" y="-358" as="targetPoint" />
          </mxGeometry>
        </mxCell>
        <mxCell id="FTzmyQGYdH0gRvFszx5Y-61" value="" style="endArrow=none;html=1;strokeColor=#000000;" edge="1" parent="1">
          <mxGeometry width="50" height="50" relative="1" as="geometry">
            <mxPoint x="1740.8" y="-322" as="sourcePoint" />
            <mxPoint x="1740.8" y="-358" as="targetPoint" />
          </mxGeometry>
        </mxCell>
        <mxCell id="FTzmyQGYdH0gRvFszx5Y-62" value="" style="endArrow=classic;html=1;strokeColor=#000000;" edge="1" parent="1">
          <mxGeometry width="50" height="50" relative="1" as="geometry">
            <mxPoint x="1898" y="-251" as="sourcePoint" />
            <mxPoint x="1861" y="-251" as="targetPoint" />
          </mxGeometry>
        </mxCell>
        <mxCell id="FTzmyQGYdH0gRvFszx5Y-63" value="" style="endArrow=classic;html=1;strokeColor=#000000;" edge="1" parent="1">
          <mxGeometry width="50" height="50" relative="1" as="geometry">
            <mxPoint x="1887" y="-251" as="sourcePoint" />
            <mxPoint x="1924" y="-251" as="targetPoint" />
          </mxGeometry>
        </mxCell>
        <mxCell id="FTzmyQGYdH0gRvFszx5Y-64" value="证书透明度收集模块" style="rounded=1;whiteSpace=wrap;html=1;direction=south;fillColor=#f5f5f5;strokeColor=#666666;fontColor=#333333;" vertex="1" parent="1">
          <mxGeometry x="2651" y="-649" width="60" height="120" as="geometry" />
        </mxCell>
        <mxCell id="FTzmyQGYdH0gRvFszx5Y-72" style="edgeStyle=elbowEdgeStyle;rounded=0;orthogonalLoop=1;jettySize=auto;html=1;exitX=0.5;exitY=1;exitDx=0;exitDy=0;entryX=0;entryY=0.5;entryDx=0;entryDy=0;startArrow=none;startFill=0;endArrow=classic;endFill=1;strokeColor=#000000;elbow=vertical;" edge="1" parent="1" source="FTzmyQGYdH0gRvFszx5Y-65" target="FTzmyQGYdH0gRvFszx5Y-64">
          <mxGeometry relative="1" as="geometry" />
        </mxCell>
        <mxCell id="FTzmyQGYdH0gRvFszx5Y-73" style="edgeStyle=elbowEdgeStyle;rounded=0;orthogonalLoop=1;jettySize=auto;elbow=vertical;html=1;exitX=0.5;exitY=1;exitDx=0;exitDy=0;entryX=0;entryY=0.5;entryDx=0;entryDy=0;startArrow=none;startFill=0;endArrow=classic;endFill=1;strokeColor=#000000;" edge="1" parent="1" source="FTzmyQGYdH0gRvFszx5Y-65" target="FTzmyQGYdH0gRvFszx5Y-70">
          <mxGeometry relative="1" as="geometry" />
        </mxCell>
        <mxCell id="FTzmyQGYdH0gRvFszx5Y-74" style="edgeStyle=elbowEdgeStyle;rounded=0;orthogonalLoop=1;jettySize=auto;elbow=vertical;html=1;exitX=0.5;exitY=1;exitDx=0;exitDy=0;entryX=0;entryY=0.5;entryDx=0;entryDy=0;startArrow=none;startFill=0;endArrow=classic;endFill=1;strokeColor=#000000;" edge="1" parent="1" source="FTzmyQGYdH0gRvFszx5Y-65" target="FTzmyQGYdH0gRvFszx5Y-69">
          <mxGeometry relative="1" as="geometry" />
        </mxCell>
        <mxCell id="FTzmyQGYdH0gRvFszx5Y-75" style="edgeStyle=elbowEdgeStyle;rounded=0;orthogonalLoop=1;jettySize=auto;elbow=vertical;html=1;exitX=0.5;exitY=1;exitDx=0;exitDy=0;startArrow=none;startFill=0;endArrow=classic;endFill=1;strokeColor=#000000;" edge="1" parent="1" source="FTzmyQGYdH0gRvFszx5Y-65" target="FTzmyQGYdH0gRvFszx5Y-68">
          <mxGeometry relative="1" as="geometry" />
        </mxCell>
        <mxCell id="FTzmyQGYdH0gRvFszx5Y-76" style="edgeStyle=elbowEdgeStyle;rounded=0;orthogonalLoop=1;jettySize=auto;elbow=vertical;html=1;exitX=0.5;exitY=1;exitDx=0;exitDy=0;startArrow=none;startFill=0;endArrow=classic;endFill=1;strokeColor=#000000;" edge="1" parent="1" source="FTzmyQGYdH0gRvFszx5Y-65" target="FTzmyQGYdH0gRvFszx5Y-67">
          <mxGeometry relative="1" as="geometry" />
        </mxCell>
        <mxCell id="FTzmyQGYdH0gRvFszx5Y-77" style="edgeStyle=elbowEdgeStyle;rounded=0;orthogonalLoop=1;jettySize=auto;elbow=vertical;html=1;exitX=0.5;exitY=1;exitDx=0;exitDy=0;entryX=0;entryY=0.5;entryDx=0;entryDy=0;startArrow=none;startFill=0;endArrow=classic;endFill=1;strokeColor=#000000;" edge="1" parent="1" source="FTzmyQGYdH0gRvFszx5Y-65" target="FTzmyQGYdH0gRvFszx5Y-66">
          <mxGeometry relative="1" as="geometry" />
        </mxCell>
        <mxCell id="FTzmyQGYdH0gRvFszx5Y-65" value="&lt;span&gt;&lt;font style=&quot;font-size: 16px&quot;&gt;子域名挖掘模块&lt;/font&gt;&lt;/span&gt;" style="rounded=0;whiteSpace=wrap;html=1;fillColor=#dae8fc;strokeColor=#6c8ebf;" vertex="1" parent="1">
          <mxGeometry x="2823" y="-879" width="176" height="76" as="geometry" />
        </mxCell>
        <mxCell id="FTzmyQGYdH0gRvFszx5Y-66" value="常规检查收集模块" style="rounded=1;whiteSpace=wrap;html=1;direction=south;fillColor=#f5f5f5;strokeColor=#666666;fontColor=#333333;" vertex="1" parent="1">
          <mxGeometry x="3128" y="-649" width="60" height="120" as="geometry" />
        </mxCell>
        <mxCell id="FTzmyQGYdH0gRvFszx5Y-67" value="&lt;span style=&quot;font-weight: normal&quot;&gt;数据集收集模块&lt;/span&gt;" style="rounded=1;whiteSpace=wrap;html=1;fontStyle=1;direction=south;fillColor=#f5f5f5;strokeColor=#666666;fontColor=#333333;" vertex="1" parent="1">
          <mxGeometry x="3029" y="-649" width="60" height="120" as="geometry" />
        </mxCell>
        <mxCell id="FTzmyQGYdH0gRvFszx5Y-68" value="威胁情报数据收集模块" style="rounded=1;whiteSpace=wrap;html=1;fontStyle=0;direction=south;fillColor=#f5f5f5;strokeColor=#666666;fontColor=#333333;" vertex="1" parent="1">
          <mxGeometry x="2930" y="-649" width="60" height="120" as="geometry" />
        </mxCell>
        <mxCell id="FTzmyQGYdH0gRvFszx5Y-69" value="DNS查询收集模块" style="rounded=1;whiteSpace=wrap;html=1;direction=south;fillColor=#f5f5f5;strokeColor=#666666;fontColor=#333333;" vertex="1" parent="1">
          <mxGeometry x="2834.5" y="-649" width="60" height="120" as="geometry" />
        </mxCell>
        <mxCell id="FTzmyQGYdH0gRvFszx5Y-70" value="搜索引擎发现模块" style="rounded=1;whiteSpace=wrap;html=1;fontStyle=0;direction=south;fillColor=#f5f5f5;strokeColor=#666666;fontColor=#333333;" vertex="1" parent="1">
          <mxGeometry x="2743" y="-649" width="60" height="120" as="geometry" />
        </mxCell>
        <mxCell id="FTzmyQGYdH0gRvFszx5Y-78" value="&lt;span&gt;存活性检测模块&lt;/span&gt;" style="rounded=1;whiteSpace=wrap;html=1;" vertex="1" parent="1">
          <mxGeometry x="1681" y="-419" width="120" height="60" as="geometry" />
        </mxCell>
        <mxCell id="FTzmyQGYdH0gRvFszx5Y-100" style="edgeStyle=elbowEdgeStyle;rounded=0;orthogonalLoop=1;jettySize=auto;elbow=vertical;html=1;exitX=0.5;exitY=1;exitDx=0;exitDy=0;entryX=0.5;entryY=0;entryDx=0;entryDy=0;startArrow=none;startFill=0;endArrow=classic;endFill=1;strokeColor=#000000;" edge="1" parent="1" source="FTzmyQGYdH0gRvFszx5Y-79" target="FTzmyQGYdH0gRvFszx5Y-81">
          <mxGeometry relative="1" as="geometry" />
        </mxCell>
        <mxCell id="FTzmyQGYdH0gRvFszx5Y-79" value="导入查询模块" style="rounded=0;whiteSpace=wrap;html=1;" vertex="1" parent="1">
          <mxGeometry x="2605" y="143" width="120" height="60" as="geometry" />
        </mxCell>
        <mxCell id="FTzmyQGYdH0gRvFszx5Y-102" style="edgeStyle=elbowEdgeStyle;rounded=0;orthogonalLoop=1;jettySize=auto;elbow=vertical;html=1;exitX=0.5;exitY=1;exitDx=0;exitDy=0;startArrow=none;startFill=0;endArrow=classic;endFill=1;strokeColor=#000000;" edge="1" parent="1" source="FTzmyQGYdH0gRvFszx5Y-80" target="FTzmyQGYdH0gRvFszx5Y-82">
          <mxGeometry relative="1" as="geometry" />
        </mxCell>
        <mxCell id="FTzmyQGYdH0gRvFszx5Y-80" value="导入对应模块的执行主函数" style="rounded=0;whiteSpace=wrap;html=1;" vertex="1" parent="1">
          <mxGeometry x="2605" y="306" width="120" height="60" as="geometry" />
        </mxCell>
        <mxCell id="FTzmyQGYdH0gRvFszx5Y-101" style="edgeStyle=elbowEdgeStyle;rounded=0;orthogonalLoop=1;jettySize=auto;elbow=vertical;html=1;exitX=0.5;exitY=1;exitDx=0;exitDy=0;entryX=0.5;entryY=0;entryDx=0;entryDy=0;startArrow=none;startFill=0;endArrow=classic;endFill=1;strokeColor=#000000;" edge="1" parent="1" source="FTzmyQGYdH0gRvFszx5Y-81" target="FTzmyQGYdH0gRvFszx5Y-80">
          <mxGeometry relative="1" as="geometry" />
        </mxCell>
        <mxCell id="FTzmyQGYdH0gRvFszx5Y-81" value="导入对应模块所需的类" style="rounded=0;whiteSpace=wrap;html=1;" vertex="1" parent="1">
          <mxGeometry x="2605" y="227" width="120" height="60" as="geometry" />
        </mxCell>
        <mxCell id="FTzmyQGYdH0gRvFszx5Y-103" style="edgeStyle=elbowEdgeStyle;rounded=0;orthogonalLoop=1;jettySize=auto;elbow=vertical;html=1;exitX=0.5;exitY=1;exitDx=0;exitDy=0;entryX=0.5;entryY=0;entryDx=0;entryDy=0;startArrow=none;startFill=0;endArrow=classic;endFill=1;strokeColor=#000000;" edge="1" parent="1" source="FTzmyQGYdH0gRvFszx5Y-82" target="FTzmyQGYdH0gRvFszx5Y-83">
          <mxGeometry relative="1" as="geometry" />
        </mxCell>
        <mxCell id="FTzmyQGYdH0gRvFszx5Y-82" value="创建多个子域收集线程" style="rounded=0;whiteSpace=wrap;html=1;" vertex="1" parent="1">
          <mxGeometry x="2605" y="393" width="120" height="60" as="geometry" />
        </mxCell>
        <mxCell id="FTzmyQGYdH0gRvFszx5Y-104" style="edgeStyle=elbowEdgeStyle;rounded=0;orthogonalLoop=1;jettySize=auto;elbow=vertical;html=1;exitX=0.5;exitY=1;exitDx=0;exitDy=0;entryX=0.5;entryY=0;entryDx=0;entryDy=0;startArrow=none;startFill=0;endArrow=classic;endFill=1;strokeColor=#000000;" edge="1" parent="1" source="FTzmyQGYdH0gRvFszx5Y-83" target="FTzmyQGYdH0gRvFszx5Y-84">
          <mxGeometry relative="1" as="geometry" />
        </mxCell>
        <mxCell id="FTzmyQGYdH0gRvFszx5Y-83" value="启动全部线程" style="rounded=0;whiteSpace=wrap;html=1;" vertex="1" parent="1">
          <mxGeometry x="2605" y="478" width="120" height="60" as="geometry" />
        </mxCell>
        <mxCell id="FTzmyQGYdH0gRvFszx5Y-105" style="edgeStyle=elbowEdgeStyle;rounded=0;orthogonalLoop=1;jettySize=auto;elbow=vertical;html=1;exitX=0.5;exitY=1;exitDx=0;exitDy=0;entryX=0.5;entryY=0;entryDx=0;entryDy=0;startArrow=none;startFill=0;endArrow=classic;endFill=1;strokeColor=#000000;" edge="1" parent="1" source="FTzmyQGYdH0gRvFszx5Y-84" target="FTzmyQGYdH0gRvFszx5Y-85">
          <mxGeometry relative="1" as="geometry" />
        </mxCell>
        <mxCell id="FTzmyQGYdH0gRvFszx5Y-84" value="等待所有线程完成" style="rounded=0;whiteSpace=wrap;html=1;" vertex="1" parent="1">
          <mxGeometry x="2605" y="564" width="120" height="60" as="geometry" />
        </mxCell>
        <mxCell id="FTzmyQGYdH0gRvFszx5Y-85" value="结果写入数据库" style="rounded=0;whiteSpace=wrap;html=1;" vertex="1" parent="1">
          <mxGeometry x="2605" y="652" width="120" height="60" as="geometry" />
        </mxCell>
        <mxCell id="FTzmyQGYdH0gRvFszx5Y-86" value="&lt;font style=&quot;font-size: 20px&quot;&gt;子域查询模块逻辑实现&lt;/font&gt;" style="text;html=1;strokeColor=none;fillColor=none;align=center;verticalAlign=middle;whiteSpace=wrap;rounded=0;" vertex="1" parent="1">
          <mxGeometry x="2573" y="54" width="193" height="53" as="geometry" />
        </mxCell>
        <mxCell id="FTzmyQGYdH0gRvFszx5Y-87" value="&lt;font style=&quot;font-size: 20px&quot;&gt;子域存活性检测逻辑&lt;/font&gt;" style="text;html=1;strokeColor=none;fillColor=none;align=center;verticalAlign=middle;whiteSpace=wrap;rounded=0;" vertex="1" parent="1">
          <mxGeometry x="2900" y="47" width="193" height="53" as="geometry" />
        </mxCell>
        <mxCell id="FTzmyQGYdH0gRvFszx5Y-94" style="edgeStyle=elbowEdgeStyle;rounded=0;orthogonalLoop=1;jettySize=auto;elbow=vertical;html=1;exitX=1;exitY=0.5;exitDx=0;exitDy=0;startArrow=none;startFill=0;endArrow=classic;endFill=1;strokeColor=#000000;" edge="1" parent="1" source="FTzmyQGYdH0gRvFszx5Y-88" target="FTzmyQGYdH0gRvFszx5Y-91">
          <mxGeometry relative="1" as="geometry" />
        </mxCell>
        <mxCell id="FTzmyQGYdH0gRvFszx5Y-98" style="edgeStyle=elbowEdgeStyle;rounded=0;orthogonalLoop=1;jettySize=auto;elbow=vertical;html=1;exitX=0.5;exitY=1;exitDx=0;exitDy=0;startArrow=none;startFill=0;endArrow=classic;endFill=1;strokeColor=#000000;" edge="1" parent="1" source="FTzmyQGYdH0gRvFszx5Y-88" target="FTzmyQGYdH0gRvFszx5Y-90">
          <mxGeometry relative="1" as="geometry" />
        </mxCell>
        <mxCell id="FTzmyQGYdH0gRvFszx5Y-88" value="&lt;div style=&quot;text-align: left ; line-height: 1.75&quot;&gt;&lt;font style=&quot;font-size: 14px&quot;&gt;子域名解析&lt;/font&gt;&lt;/div&gt;" style="rounded=0;whiteSpace=wrap;html=1;" vertex="1" parent="1">
          <mxGeometry x="2952" y="237" width="120" height="60" as="geometry" />
        </mxCell>
        <mxCell id="FTzmyQGYdH0gRvFszx5Y-97" style="edgeStyle=elbowEdgeStyle;rounded=0;orthogonalLoop=1;jettySize=auto;elbow=vertical;html=1;exitX=0.5;exitY=1;exitDx=0;exitDy=0;entryX=0.5;entryY=0;entryDx=0;entryDy=0;startArrow=none;startFill=0;endArrow=classic;endFill=1;strokeColor=#000000;" edge="1" parent="1" source="FTzmyQGYdH0gRvFszx5Y-89" target="FTzmyQGYdH0gRvFszx5Y-88">
          <mxGeometry relative="1" as="geometry" />
        </mxCell>
        <mxCell id="FTzmyQGYdH0gRvFszx5Y-89" value="&lt;font style=&quot;font-size: 14px&quot;&gt;导入全部子域名&lt;/font&gt;" style="rounded=0;whiteSpace=wrap;html=1;" vertex="1" parent="1">
          <mxGeometry x="2952" y="135" width="120" height="60" as="geometry" />
        </mxCell>
        <mxCell id="FTzmyQGYdH0gRvFszx5Y-96" style="edgeStyle=elbowEdgeStyle;rounded=0;orthogonalLoop=1;jettySize=auto;elbow=vertical;html=1;exitX=1;exitY=0.5;exitDx=0;exitDy=0;entryX=0;entryY=0.5;entryDx=0;entryDy=0;startArrow=none;startFill=0;endArrow=classic;endFill=1;strokeColor=#000000;" edge="1" parent="1" source="FTzmyQGYdH0gRvFszx5Y-90" target="FTzmyQGYdH0gRvFszx5Y-92">
          <mxGeometry relative="1" as="geometry" />
        </mxCell>
        <mxCell id="FTzmyQGYdH0gRvFszx5Y-99" style="edgeStyle=elbowEdgeStyle;rounded=0;orthogonalLoop=1;jettySize=auto;elbow=vertical;html=1;exitX=0.5;exitY=1;exitDx=0;exitDy=0;startArrow=none;startFill=0;endArrow=classic;endFill=1;strokeColor=#000000;" edge="1" parent="1" source="FTzmyQGYdH0gRvFszx5Y-90" target="FTzmyQGYdH0gRvFszx5Y-93">
          <mxGeometry relative="1" as="geometry" />
        </mxCell>
        <mxCell id="FTzmyQGYdH0gRvFszx5Y-90" value="&lt;div style=&quot;text-align: left ; line-height: 1.75 ; font-size: 14px&quot;&gt;子域名请求&lt;/div&gt;" style="rounded=0;whiteSpace=wrap;html=1;" vertex="1" parent="1">
          <mxGeometry x="2952" y="343" width="120" height="60" as="geometry" />
        </mxCell>
        <mxCell id="FTzmyQGYdH0gRvFszx5Y-91" value="&lt;div style=&quot;text-align: left ; line-height: 1.75 ; font-size: 14px&quot;&gt;批量查询a记录&lt;/div&gt;" style="rounded=1;whiteSpace=wrap;html=1;" vertex="1" parent="1">
          <mxGeometry x="3125" y="237" width="120" height="60" as="geometry" />
        </mxCell>
        <mxCell id="FTzmyQGYdH0gRvFszx5Y-92" value="&lt;div style=&quot;text-align: left ; line-height: 1.75 ; font-size: 14px&quot;&gt;获取状态和响应码&lt;/div&gt;" style="rounded=1;whiteSpace=wrap;html=1;" vertex="1" parent="1">
          <mxGeometry x="3130" y="343" width="120" height="60" as="geometry" />
        </mxCell>
        <mxCell id="FTzmyQGYdH0gRvFszx5Y-93" value="&lt;span style=&quot;font-size: 14px&quot;&gt;结果写入数据库&lt;/span&gt;" style="rounded=0;whiteSpace=wrap;html=1;" vertex="1" parent="1">
          <mxGeometry x="2952" y="449" width="120" height="60" as="geometry" />
        </mxCell>
        <mxCell id="FTzmyQGYdH0gRvFszx5Y-117" style="edgeStyle=elbowEdgeStyle;rounded=0;orthogonalLoop=1;jettySize=auto;elbow=vertical;html=1;exitX=0.5;exitY=1;exitDx=0;exitDy=0;entryX=0.5;entryY=0;entryDx=0;entryDy=0;startArrow=none;startFill=0;endArrow=classic;endFill=1;strokeColor=#000000;" edge="1" parent="1" source="FTzmyQGYdH0gRvFszx5Y-106" target="FTzmyQGYdH0gRvFszx5Y-108">
          <mxGeometry relative="1" as="geometry" />
        </mxCell>
        <mxCell id="FTzmyQGYdH0gRvFszx5Y-106" value="导入域名信息" style="rounded=0;whiteSpace=wrap;html=1;" vertex="1" parent="1">
          <mxGeometry x="2882" y="740" width="120" height="60" as="geometry" />
        </mxCell>
        <mxCell id="FTzmyQGYdH0gRvFszx5Y-107" value="&lt;font style=&quot;font-size: 20px&quot;&gt;主域名信息查询逻辑实现&lt;/font&gt;" style="text;html=1;strokeColor=none;fillColor=none;align=center;verticalAlign=middle;whiteSpace=wrap;rounded=0;" vertex="1" parent="1">
          <mxGeometry x="2855" y="665" width="193" height="53" as="geometry" />
        </mxCell>
        <mxCell id="FTzmyQGYdH0gRvFszx5Y-118" style="edgeStyle=elbowEdgeStyle;rounded=0;orthogonalLoop=1;jettySize=auto;elbow=vertical;html=1;exitX=0.5;exitY=1;exitDx=0;exitDy=0;startArrow=none;startFill=0;endArrow=classic;endFill=1;strokeColor=#000000;" edge="1" parent="1" source="FTzmyQGYdH0gRvFszx5Y-108" target="FTzmyQGYdH0gRvFszx5Y-109">
          <mxGeometry relative="1" as="geometry" />
        </mxCell>
        <mxCell id="FTzmyQGYdH0gRvFszx5Y-119" style="edgeStyle=elbowEdgeStyle;rounded=0;orthogonalLoop=1;jettySize=auto;elbow=vertical;html=1;exitX=0.5;exitY=1;exitDx=0;exitDy=0;startArrow=none;startFill=0;endArrow=classic;endFill=1;strokeColor=#000000;" edge="1" parent="1" source="FTzmyQGYdH0gRvFszx5Y-108" target="FTzmyQGYdH0gRvFszx5Y-110">
          <mxGeometry relative="1" as="geometry" />
        </mxCell>
        <mxCell id="FTzmyQGYdH0gRvFszx5Y-108" value="加载插件" style="rounded=0;whiteSpace=wrap;html=1;" vertex="1" parent="1">
          <mxGeometry x="2882" y="843" width="120" height="60" as="geometry" />
        </mxCell>
        <mxCell id="FTzmyQGYdH0gRvFszx5Y-122" style="edgeStyle=elbowEdgeStyle;rounded=0;orthogonalLoop=1;jettySize=auto;html=1;exitX=0;exitY=0.5;exitDx=0;exitDy=0;entryX=1;entryY=0.5;entryDx=0;entryDy=0;startArrow=none;startFill=0;endArrow=classic;endFill=1;strokeColor=#000000;" edge="1" parent="1" source="FTzmyQGYdH0gRvFszx5Y-109" target="FTzmyQGYdH0gRvFszx5Y-116">
          <mxGeometry relative="1" as="geometry" />
        </mxCell>
        <mxCell id="FTzmyQGYdH0gRvFszx5Y-124" style="edgeStyle=orthogonalEdgeStyle;rounded=0;orthogonalLoop=1;jettySize=auto;html=1;exitX=0.5;exitY=1;exitDx=0;exitDy=0;entryX=0.5;entryY=0;entryDx=0;entryDy=0;startArrow=none;startFill=0;endArrow=classic;endFill=1;strokeColor=#000000;" edge="1" parent="1" source="FTzmyQGYdH0gRvFszx5Y-109" target="FTzmyQGYdH0gRvFszx5Y-123">
          <mxGeometry relative="1" as="geometry" />
        </mxCell>
        <mxCell id="FTzmyQGYdH0gRvFszx5Y-109" value="调用同步插件" style="rounded=0;whiteSpace=wrap;html=1;" vertex="1" parent="1">
          <mxGeometry x="2787" y="969" width="120" height="60" as="geometry" />
        </mxCell>
        <mxCell id="FTzmyQGYdH0gRvFszx5Y-120" style="edgeStyle=elbowEdgeStyle;rounded=0;orthogonalLoop=1;jettySize=auto;html=1;exitX=1;exitY=0.5;exitDx=0;exitDy=0;entryX=0;entryY=0.5;entryDx=0;entryDy=0;startArrow=none;startFill=0;endArrow=classic;endFill=1;strokeColor=#000000;" edge="1" parent="1" source="FTzmyQGYdH0gRvFszx5Y-110" target="FTzmyQGYdH0gRvFszx5Y-114">
          <mxGeometry relative="1" as="geometry" />
        </mxCell>
        <mxCell id="FTzmyQGYdH0gRvFszx5Y-121" style="edgeStyle=elbowEdgeStyle;rounded=0;orthogonalLoop=1;jettySize=auto;html=1;exitX=1;exitY=0.5;exitDx=0;exitDy=0;entryX=0;entryY=0.5;entryDx=0;entryDy=0;startArrow=none;startFill=0;endArrow=classic;endFill=1;strokeColor=#000000;" edge="1" parent="1" source="FTzmyQGYdH0gRvFszx5Y-110" target="FTzmyQGYdH0gRvFszx5Y-115">
          <mxGeometry relative="1" as="geometry" />
        </mxCell>
        <mxCell id="FTzmyQGYdH0gRvFszx5Y-125" style="edgeStyle=orthogonalEdgeStyle;rounded=0;orthogonalLoop=1;jettySize=auto;html=1;exitX=0.5;exitY=1;exitDx=0;exitDy=0;startArrow=none;startFill=0;endArrow=classic;endFill=1;strokeColor=#000000;" edge="1" parent="1" source="FTzmyQGYdH0gRvFszx5Y-110" target="FTzmyQGYdH0gRvFszx5Y-123">
          <mxGeometry relative="1" as="geometry" />
        </mxCell>
        <mxCell id="FTzmyQGYdH0gRvFszx5Y-110" value="&lt;span&gt;调用异步插件&lt;/span&gt;" style="rounded=0;whiteSpace=wrap;html=1;" vertex="1" parent="1">
          <mxGeometry x="2976" y="969" width="120" height="60" as="geometry" />
        </mxCell>
        <mxCell id="FTzmyQGYdH0gRvFszx5Y-114" value="&lt;span&gt;DNS查询模块&lt;/span&gt;" style="rounded=1;whiteSpace=wrap;html=1;" vertex="1" parent="1">
          <mxGeometry x="3156" y="910" width="120" height="60" as="geometry" />
        </mxCell>
        <mxCell id="FTzmyQGYdH0gRvFszx5Y-115" value="&lt;span&gt;IP查询模块&lt;/span&gt;" style="rounded=1;whiteSpace=wrap;html=1;" vertex="1" parent="1">
          <mxGeometry x="3156" y="1026" width="120" height="60" as="geometry" />
        </mxCell>
        <mxCell id="FTzmyQGYdH0gRvFszx5Y-116" value="&lt;span&gt;WHOIS查询模块&lt;/span&gt;" style="rounded=1;whiteSpace=wrap;html=1;" vertex="1" parent="1">
          <mxGeometry x="2620" y="969" width="120" height="60" as="geometry" />
        </mxCell>
        <mxCell id="FTzmyQGYdH0gRvFszx5Y-123" value="输出WEB界面" style="rounded=0;whiteSpace=wrap;html=1;" vertex="1" parent="1">
          <mxGeometry x="2874" y="1078" width="120" height="60" as="geometry" />
        </mxCell>
        <mxCell id="FTzmyQGYdH0gRvFszx5Y-126" value="同步插件" style="rounded=0;whiteSpace=wrap;html=1;direction=south;" vertex="1" parent="1">
          <mxGeometry x="598" y="376" width="60" height="120" as="geometry" />
        </mxCell>
        <mxCell id="FTzmyQGYdH0gRvFszx5Y-127" value="&lt;span&gt;异步插件&lt;/span&gt;" style="rounded=0;whiteSpace=wrap;html=1;direction=south;" vertex="1" parent="1">
          <mxGeometry x="686" y="376" width="60" height="120" as="geometry" />
        </mxCell>
        <mxCell id="FTzmyQGYdH0gRvFszx5Y-128" value="前端组件" style="rounded=0;whiteSpace=wrap;html=1;direction=south;" vertex="1" parent="1">
          <mxGeometry x="340" y="376" width="60" height="120" as="geometry" />
        </mxCell>
        <mxCell id="FTzmyQGYdH0gRvFszx5Y-129" value="页面支持" style="rounded=0;whiteSpace=wrap;html=1;direction=south;" vertex="1" parent="1">
          <mxGeometry x="427" y="376" width="60" height="120" as="geometry" />
        </mxCell>
        <mxCell id="FTzmyQGYdH0gRvFszx5Y-130" value="配置文件和变量" style="rounded=0;whiteSpace=wrap;html=1;direction=south;" vertex="1" parent="1">
          <mxGeometry x="514" y="376" width="60" height="120" as="geometry" />
        </mxCell>
        <mxCell id="FTzmyQGYdH0gRvFszx5Y-133" value="配置文件和参数" style="rounded=0;whiteSpace=wrap;html=1;direction=south;" vertex="1" parent="1">
          <mxGeometry x="-9" y="376" width="60" height="120" as="geometry" />
        </mxCell>
        <mxCell id="FTzmyQGYdH0gRvFszx5Y-134" value="子域名获取模块" style="rounded=0;whiteSpace=wrap;html=1;direction=south;" vertex="1" parent="1">
          <mxGeometry x="77" y="376" width="60" height="120" as="geometry" />
        </mxCell>
        <mxCell id="FTzmyQGYdH0gRvFszx5Y-135" value="数据库模块" style="rounded=0;whiteSpace=wrap;html=1;direction=south;" vertex="1" parent="1">
          <mxGeometry x="163" y="376" width="60" height="120" as="geometry" />
        </mxCell>
        <mxCell id="FTzmyQGYdH0gRvFszx5Y-137" value="输出模块" style="rounded=0;whiteSpace=wrap;html=1;direction=south;" vertex="1" parent="1">
          <mxGeometry x="777" y="376" width="60" height="120" as="geometry" />
        </mxCell>
        <mxCell id="FTzmyQGYdH0gRvFszx5Y-141" style="edgeStyle=orthogonalEdgeStyle;rounded=0;orthogonalLoop=1;jettySize=auto;html=1;exitX=0.5;exitY=1;exitDx=0;exitDy=0;" edge="1" parent="1" source="FTzmyQGYdH0gRvFszx5Y-144" target="FTzmyQGYdH0gRvFszx5Y-145">
          <mxGeometry relative="1" as="geometry" />
        </mxCell>
        <mxCell id="FTzmyQGYdH0gRvFszx5Y-142" style="edgeStyle=orthogonalEdgeStyle;rounded=0;orthogonalLoop=1;jettySize=auto;html=1;entryX=0.5;entryY=0;entryDx=0;entryDy=0;" edge="1" parent="1" source="FTzmyQGYdH0gRvFszx5Y-144" target="FTzmyQGYdH0gRvFszx5Y-146">
          <mxGeometry relative="1" as="geometry" />
        </mxCell>
        <mxCell id="FTzmyQGYdH0gRvFszx5Y-143" style="edgeStyle=orthogonalEdgeStyle;rounded=0;orthogonalLoop=1;jettySize=auto;html=1;exitX=0.5;exitY=1;exitDx=0;exitDy=0;" edge="1" parent="1" source="FTzmyQGYdH0gRvFszx5Y-144" target="FTzmyQGYdH0gRvFszx5Y-147">
          <mxGeometry relative="1" as="geometry" />
        </mxCell>
        <mxCell id="FTzmyQGYdH0gRvFszx5Y-144" value="主域名查询模块" style="rounded=0;whiteSpace=wrap;html=1;fillColor=#dae8fc;strokeColor=#6c8ebf;" vertex="1" parent="1">
          <mxGeometry x="1174" y="-446" width="120" height="60" as="geometry" />
        </mxCell>
        <mxCell id="FTzmyQGYdH0gRvFszx5Y-145" value="IP信息搜集模块" style="rounded=1;whiteSpace=wrap;html=1;" vertex="1" parent="1">
          <mxGeometry x="1022" y="-273" width="105" height="55" as="geometry" />
        </mxCell>
        <mxCell id="FTzmyQGYdH0gRvFszx5Y-146" value="DNS信息搜集模块" style="rounded=1;whiteSpace=wrap;html=1;" vertex="1" parent="1">
          <mxGeometry x="1179" y="-272" width="110" height="55" as="geometry" />
        </mxCell>
        <mxCell id="FTzmyQGYdH0gRvFszx5Y-147" value="WHOIS信息搜集模块" style="rounded=1;whiteSpace=wrap;html=1;" vertex="1" parent="1">
          <mxGeometry x="1337" y="-273" width="100" height="55" as="geometry" />
        </mxCell>
      </root>
    </mxGraphModel>
  </diagram>
</mxfile>
